<svg width="11" height="11" viewBox="0 0 11 11" fill="none" xmlns="http://www.w3.org/2000/svg">
<path d="M0.625 2.59375C0.414062 2.59375 0.25 2.42969 0.25 2.21875V1.28125C0.25 1.09375 0.414062 0.90625 0.625 0.90625H10.375C10.5625 0.90625 10.75 1.09375 10.75 1.28125V2.21875C10.75 2.42969 10.5625 2.59375 10.375 2.59375H0.625ZM0.625 6.34375C0.414062 6.34375 0.25 6.17969 0.25 5.96875V5.03125C0.25 4.84375 0.414062 4.65625 0.625 4.65625H10.375C10.5625 4.65625 10.75 4.84375 10.75 5.03125V5.96875C10.75 6.17969 10.5625 6.34375 10.375 6.34375H0.625ZM0.625 10.0938C0.414062 10.0938 0.25 9.92969 0.25 9.71875V8.78125C0.25 8.59375 0.414062 8.40625 0.625 8.40625H10.375C10.5625 8.40625 10.75 8.59375 10.75 8.78125V9.71875C10.75 9.92969 10.5625 10.0938 10.375 10.0938H0.625Z" fill="#1C2D12"/>
</svg>
