<svg width="43" height="44" viewBox="0 0 43 44" fill="none" xmlns="http://www.w3.org/2000/svg">
    <path d="M41.5 22C41.5 24.61 40.9859 27.1945 39.9871 29.6058C38.9883 32.0172 37.5243 34.2082 35.6787 36.0537C33.8332 37.8993 31.6422 39.3633 29.2308 40.3621C26.8195 41.3609 24.235 41.875 21.625 41.875C19.015 41.875 16.4305 41.3609 14.0192 40.3621C11.6078 39.3633 9.41682 37.8993 7.57125 36.0537C5.72569 34.2082 4.26171 32.0172 3.26289 29.6058C2.26408 27.1945 1.75 24.61 1.75 22C1.75 16.7288 3.84397 11.6735 7.57125 7.94625C11.2985 4.21897 16.3538 2.125 21.625 2.125C26.8962 2.125 31.9515 4.21897 35.6787 7.94625C39.406 11.6735 41.5 16.7288 41.5 22Z" fill="#bac9aa"/>
    <path fill-rule="evenodd" clip-rule="evenodd" d="M21.625 3.625C16.7516 3.625 12.0779 5.56093 8.63191 9.00691C5.18593 12.4529 3.25 17.1266 3.25 22C3.25 24.413 3.72528 26.8025 4.64871 29.0318C5.57214 31.2612 6.92564 33.2868 8.63191 34.9931C10.3382 36.6994 12.3638 38.0529 14.5932 38.9763C16.8225 39.8997 19.212 40.375 21.625 40.375C24.038 40.375 26.4275 39.8997 28.6568 38.9763C30.8862 38.0529 32.9118 36.6994 34.6181 34.9931C36.3244 33.2868 37.6779 31.2612 38.6013 29.0318C39.5247 26.8025 40 24.413 40 22C40 17.1266 38.0641 12.4529 34.6181 9.00691C31.1721 5.56093 26.4984 3.625 21.625 3.625ZM6.51059 6.88559C10.5192 2.877 15.956 0.625 21.625 0.625C27.294 0.625 32.7308 2.877 36.7394 6.88559C40.748 10.8942 43 16.331 43 22C43 24.807 42.4471 27.5865 41.3729 30.1799C40.2987 32.7732 38.7243 35.1296 36.7394 37.1144C34.7546 39.0993 32.3982 40.6737 29.8049 41.7479C27.2115 42.8221 24.432 43.375 21.625 43.375C18.818 43.375 16.0385 42.8221 13.4451 41.7479C10.8518 40.6737 8.49544 39.0993 6.51059 37.1144C4.52574 35.1296 2.95127 32.7732 1.87707 30.1799C0.80288 27.5865 0.25 24.807 0.25 22C0.25 16.331 2.502 10.8942 6.51059 6.88559ZM17.2083 13.875C18.0368 13.875 18.7083 14.5466 18.7083 15.375V28.625C18.7083 29.4534 18.0368 30.125 17.2083 30.125C16.3799 30.125 15.7083 29.4534 15.7083 28.625V15.375C15.7083 14.5466 16.3799 13.875 17.2083 13.875ZM26.0417 13.875C26.8701 13.875 27.5417 14.5466 27.5417 15.375V28.625C27.5417 29.4534 26.8701 30.125 26.0417 30.125C25.2132 30.125 24.5417 29.4534 24.5417 28.625V15.375C24.5417 14.5466 25.2132 13.875 26.0417 13.875Z" fill="#153821"/>
</svg>