<svg fill="none" height="44" viewBox="0 0 43 44" width="43" xmlns="http://www.w3.org/2000/svg"><path d="m41.5 21.75c0 2.61-.5141 5.1945-1.5129 7.6058-.9988 2.4114-2.4628 4.6024-4.3084 6.4479-1.8455 1.8456-4.0365 3.3096-6.4479 4.3084-2.4113.9988-4.9958 1.5129-7.6058 1.5129s-5.1945-.5141-7.6058-1.5129c-2.4114-.9988-4.60238-2.4628-6.44795-4.3084-1.84556-1.8455-3.30954-4.0365-4.30836-6.4479-.99881-2.4113-1.51289-4.9958-1.51289-7.6058 0-5.2712 2.09397-10.3265 5.82125-14.05375 3.72725-3.72728 8.78255-5.82125 14.05375-5.82125s10.3265 2.09397 14.0537 5.82125c3.7273 3.72725 5.8213 8.78255 5.8213 14.05375z" fill="#215834"/><g fill="#bac9aa"><path clip-rule="evenodd" d="m21.625 3.375c-4.8734 0-9.5471 1.93593-12.99309 5.38191-3.44598 3.44599-5.38191 8.11969-5.38191 12.99309 0 2.413.47528 4.8025 1.39871 7.0318.92343 2.2294 2.27693 4.255 3.9832 5.9613 1.70629 1.7063 3.73189 3.0598 5.96129 3.9832 2.2293.9234 4.6188 1.3987 7.0318 1.3987s4.8025-.4753 7.0318-1.3987c2.2294-.9234 4.255-2.2769 5.9613-3.9832s3.0598-3.7319 3.9832-5.9613c.9234-2.2293 1.3987-4.6188 1.3987-7.0318 0-4.8734-1.9359-9.5471-5.3819-12.99309-3.446-3.44598-8.1197-5.38191-12.9931-5.38191zm-15.11441 3.26059c4.00861-4.00859 9.44541-6.26059 15.11441-6.26059s11.1058 2.252 15.1144 6.26059c4.0086 4.00861 6.2606 9.44541 6.2606 15.11441 0 2.807-.5529 5.5865-1.6271 8.1799-1.0742 2.5933-2.6486 4.9497-4.6335 6.9345-1.9848 1.9849-4.3412 3.5593-6.9345 4.6335-2.5934 1.0742-5.3729 1.6271-8.1799 1.6271s-5.5865-.5529-8.1799-1.6271c-2.5933-1.0742-4.94966-2.6486-6.93451-4.6335-1.98485-1.9848-3.55932-4.3412-4.63352-6.9345-1.07419-2.5934-1.62707-5.3729-1.62707-8.1799 0-5.669 2.252-11.1058 6.26059-15.11441z" fill-rule="evenodd"/><path d="m15.5176 15.5064c0-1.5214 1.6682-2.4536 2.9639-1.6563l10.1455 6.2434c1.234.7594 1.234 2.5531 0 3.3125l-10.1455 6.2433c-1.2957.7974-2.9639-.1348-2.9639-1.6562z"/></g></svg>