<svg viewBox="0 0 21 11" fill="none" xmlns="http://www.w3.org/2000/svg">
    <path d="M0.0430767 5.49981C0.0430771 5.15696 0.320964 4.87907 0.663374 4.87951L18.6117 4.87955L15.2559 1.52368C15.012 1.27979 15.012 0.883951 15.2559 0.640107C15.4998 0.396226 15.8956 0.396264 16.1394 0.640108L20.5574 5.05806C20.6745 5.17513 20.7421 5.33374 20.742 5.49984C20.742 5.66594 20.6745 5.82455 20.5574 5.94163L16.1394 10.3596C15.8956 10.6035 15.4997 10.6034 15.2559 10.3596C15.012 10.1157 15.012 9.71985 15.2559 9.47601L18.6117 6.12014L0.663374 6.1201C0.320523 6.1201 0.0426366 5.84222 0.0430767 5.49981Z" fill="white"/>
</svg>
