<svg width="11" height="11" viewBox="0 0 11 11" fill="none" xmlns="http://www.w3.org/2000/svg">
<path d="M4.70312 0.736816L5.21875 0.221191C5.45312 0.0102539 5.80469 0.0102539 6.01562 0.221191L10.5859 4.76807C10.7969 5.00244 10.7969 5.354 10.5859 5.56494L6.01562 10.1353C5.80469 10.3462 5.45312 10.3462 5.21875 10.1353L4.70312 9.61963C4.49219 9.38525 4.49219 9.03369 4.70312 8.79932L7.53906 6.104H0.8125C0.484375 6.104 0.25 5.86963 0.25 5.5415V4.7915C0.25 4.48682 0.484375 4.229 0.8125 4.229H7.53906L4.70312 1.55713C4.49219 1.32275 4.46875 0.971191 4.70312 0.736816Z" fill="#FFFEFC"/>
</svg>
