<svg width="12" height="12" viewBox="0 0 12 12" fill="none" xmlns="http://www.w3.org/2000/svg">
<g clip-path="url(#clip0_6955_23081)">
<path d="M0.145459 11.8545C0.339404 12.0485 0.653796 12.0485 0.847243 11.8545L11.0003 1.70142V5.49814C11.0003 5.77406 11.2243 5.99796 11.5001 5.99796C11.7761 5.99796 12 5.77402 12 5.49814V0.49982C12 0.367366 11.9485 0.239398 11.8545 0.145459C11.7605 0.0515193 11.6326 0 11.5001 0L6.50181 0C6.2259 0 6.00199 0.223943 6.00199 0.49982C6.00199 0.775697 6.22594 0.99964 6.50181 0.99964H10.2985L0.145459 11.1528C-0.0484863 11.3467 -0.0484863 11.6611 0.145459 11.8545Z" fill="black"/>
</g>
<defs>
<clipPath id="clip0_6955_23081">
<rect width="12" height="12" fill="white"/>
</clipPath>
</defs>
</svg>
