<svg width="11" height="11" viewBox="0 0 11 11" fill="none" xmlns="http://www.w3.org/2000/svg">
<path d="M6.27344 9.61963L5.75781 10.1353C5.52344 10.3462 5.17188 10.3462 4.96094 10.1353L0.414062 5.56494C0.179688 5.354 0.179688 5.00244 0.414062 4.7915L4.96094 0.221191C5.17188 0.0102539 5.54688 0.0102539 5.75781 0.221191L6.27344 0.736816C6.50781 0.971191 6.48438 1.32275 6.27344 1.55713L3.4375 4.229H10.1875C10.4922 4.229 10.75 4.48682 10.75 4.7915V5.5415C10.75 5.86963 10.4922 6.104 10.1875 6.104H3.4375L6.27344 8.79932C6.48438 9.03369 6.50781 9.38525 6.27344 9.61963Z" fill="#FFFEFC"/>
</svg>
