<svg viewBox="0 0 25 26" fill="none" xmlns="http://www.w3.org/2000/svg">
  <path d="M12.5 2.73828C15.8398 2.73828 16.2354 2.75293 17.5488 2.81152C18.7695 2.86523 19.4287 3.07031 19.8682 3.24121C20.4492 3.46582 20.8691 3.73926 21.3037 4.17383C21.7432 4.61328 22.0117 5.02832 22.2363 5.60938C22.4072 6.04883 22.6123 6.71289 22.666 7.92871C22.7246 9.24707 22.7393 9.64258 22.7393 12.9775C22.7393 16.3174 22.7246 16.7129 22.666 18.0264C22.6123 19.2471 22.4072 19.9063 22.2363 20.3457C22.0117 20.9268 21.7383 21.3467 21.3037 21.7813C20.8643 22.2207 20.4492 22.4893 19.8682 22.7139C19.4287 22.8848 18.7646 23.0898 17.5488 23.1436C16.2305 23.2022 15.835 23.2168 12.5 23.2168C9.16016 23.2168 8.76465 23.2022 7.45117 23.1436C6.23047 23.0898 5.57129 22.8848 5.13184 22.7139C4.55078 22.4893 4.13086 22.2158 3.69629 21.7813C3.25684 21.3418 2.98828 20.9268 2.76367 20.3457C2.59277 19.9063 2.3877 19.2422 2.33398 18.0264C2.27539 16.708 2.26074 16.3125 2.26074 12.9775C2.26074 9.6377 2.27539 9.24219 2.33398 7.92871C2.3877 6.70801 2.59277 6.04883 2.76367 5.60938C2.98828 5.02832 3.26172 4.6084 3.69629 4.17383C4.13574 3.73438 4.55078 3.46582 5.13184 3.24121C5.57129 3.07031 6.23535 2.86523 7.45117 2.81152C8.76465 2.75293 9.16016 2.73828 12.5 2.73828ZM12.5 0.487305C9.10645 0.487305 8.68164 0.501953 7.34863 0.560547C6.02051 0.619141 5.10742 0.833984 4.31641 1.1416C3.49121 1.46387 2.79297 1.88867 2.09961 2.58691C1.40137 3.28027 0.976562 3.97852 0.654297 4.79883C0.34668 5.59473 0.131836 6.50293 0.0732422 7.83106C0.0146484 9.16895 0 9.59375 0 12.9873C0 16.3809 0.0146484 16.8057 0.0732422 18.1387C0.131836 19.4668 0.34668 20.3799 0.654297 21.1709C0.976562 21.9961 1.40137 22.6943 2.09961 23.3877C2.79297 24.0811 3.49121 24.5107 4.31152 24.8281C5.10742 25.1357 6.01562 25.3506 7.34375 25.4092C8.67676 25.4678 9.10156 25.4824 12.4951 25.4824C15.8887 25.4824 16.3135 25.4678 17.6465 25.4092C18.9746 25.3506 19.8877 25.1357 20.6787 24.8281C21.499 24.5107 22.1973 24.0811 22.8906 23.3877C23.584 22.6943 24.0137 21.9961 24.3311 21.1758C24.6387 20.3799 24.8535 19.4717 24.9121 18.1436C24.9707 16.8105 24.9854 16.3857 24.9854 12.9922C24.9854 9.59863 24.9707 9.17383 24.9121 7.84082C24.8535 6.5127 24.6387 5.59961 24.3311 4.80859C24.0234 3.97852 23.5986 3.28027 22.9004 2.58691C22.207 1.89355 21.5088 1.46387 20.6885 1.14648C19.8926 0.838867 18.9844 0.624023 17.6562 0.56543C16.3184 0.501953 15.8936 0.487305 12.5 0.487305Z" fill="black"/>
  <path d="M12.5 6.56641C8.95508 6.56641 6.0791 9.44238 6.0791 12.9873C6.0791 16.5322 8.95508 19.4082 12.5 19.4082C16.0449 19.4082 18.9209 16.5322 18.9209 12.9873C18.9209 9.44238 16.0449 6.56641 12.5 6.56641ZM12.5 17.1523C10.2002 17.1523 8.33496 15.2871 8.33496 12.9873C8.33496 10.6875 10.2002 8.82227 12.5 8.82227C14.7998 8.82227 16.665 10.6875 16.665 12.9873C16.665 15.2871 14.7998 17.1523 12.5 17.1523Z" fill="black"/>
  <path d="M20.6738 6.3125C20.6738 7.14258 20 7.81153 19.1748 7.81153C18.3447 7.81153 17.6758 7.1377 17.6758 6.3125C17.6758 5.48242 18.3496 4.81348 19.1748 4.81348C20 4.81348 20.6738 5.48731 20.6738 6.3125Z" fill="black"/>
</svg>
