<svg width="16" height="16" viewBox="0 0 16 16" fill="none" xmlns="http://www.w3.org/2000/svg">
<g clip-path="url(#clip0_5482_67894)">
<path fill-rule="evenodd" clip-rule="evenodd" d="M12.1743 0.275917C12.4919 0.344291 12.8444 0.59221 12.9179 1.03141L13.5568 4.85323C13.5994 4.84615 13.6436 4.84449 13.6886 4.84894L13.6393 5.34651C13.6886 4.84894 13.6888 4.84897 13.6891 4.84899L13.6896 4.84904L13.6907 4.84915L13.693 4.8494C13.6946 4.84957 13.6964 4.84977 13.6983 4.84999C13.702 4.85042 13.7064 4.85096 13.7112 4.85161C13.721 4.8529 13.7328 4.85466 13.7465 4.85702C13.7739 4.86173 13.8092 4.86895 13.8503 4.87994C13.9314 4.9016 14.0415 4.93968 14.1581 5.00689C14.403 5.14802 14.6644 5.41377 14.739 5.8597C14.8136 6.30562 14.6528 6.64198 14.4671 6.85508C14.3787 6.95657 14.287 7.02837 14.2174 7.07524C14.1821 7.099 14.151 7.11734 14.1267 7.13068C14.1145 7.13738 14.1038 7.1429 14.0951 7.14728C14.0907 7.14947 14.0867 7.15139 14.0833 7.15304C14.0816 7.15386 14.08 7.15462 14.0785 7.15531L14.0764 7.15629L14.0754 7.15675L14.0749 7.15697C14.0747 7.15707 14.0745 7.15718 13.8661 6.70269L14.0745 7.15718C14.0334 7.17602 13.9911 7.18883 13.9485 7.19597L14.5896 11.0301C14.667 11.4931 14.3763 11.8321 14.1065 11.9848C13.8612 12.1235 13.4096 12.2242 13.0689 11.9093C13.0686 11.909 13.0682 11.9087 13.0678 11.9084L13.0654 11.9063C13.0602 11.9016 13.052 11.8944 13.0408 11.8847C13.0186 11.8654 12.9848 11.8364 12.9405 11.7992C12.8518 11.7248 12.7211 11.6178 12.5561 11.4901C12.2253 11.2343 11.7602 10.8984 11.2215 10.5763C10.1131 9.91343 8.81674 9.38455 7.75394 9.56225L2.82239 10.3868C2.5608 10.4305 2.29256 10.3685 2.07666 10.2145C1.86077 10.0604 1.71491 9.82694 1.67118 9.56536L1.63211 9.3317C1.58293 9.30075 1.53128 9.26359 1.47898 9.21907C1.23703 9.01309 1.01611 8.67938 0.930665 8.16835C0.845225 7.65732 0.945576 7.26989 1.10737 6.99641C1.14234 6.93729 1.1791 6.88536 1.21553 6.84009L1.17646 6.60643C1.13273 6.34484 1.1947 6.0766 1.34874 5.86071C1.50279 5.64481 1.73628 5.49895 1.99787 5.45522L6.92942 4.6307C7.99295 4.45288 9.04751 3.53368 9.88039 2.54994C10.2852 2.07181 10.616 1.6046 10.8458 1.25641C10.9604 1.08268 11.0493 0.939523 11.109 0.840665C11.1388 0.791259 11.1613 0.752986 11.1761 0.727567C11.1835 0.71486 11.1889 0.705373 11.1924 0.69932C11.1939 0.696732 11.195 0.694775 11.1957 0.693461C11.42 0.285606 11.8635 0.209022 12.1743 0.275917ZM2.65593 6.35908L2.16277 6.44153L2.2433 6.92317C2.24476 6.93078 2.24603 6.93841 2.24713 6.94605L2.57313 8.89594C2.57458 8.90351 2.57586 8.91114 2.57696 8.91881L2.65749 9.40046L3.15064 9.318L2.65593 6.35908ZM4.13695 9.1531L3.64224 6.19417L7.09432 5.61701L7.58903 8.57594L4.13695 9.1531ZM8.59824 8.54798C9.73146 8.65809 10.8631 9.19677 11.7348 9.71809C12.3165 10.0659 12.815 10.4262 13.1678 10.6991C13.3397 10.832 13.4778 10.9448 13.5751 11.0263L11.9599 1.36597C11.8943 1.47433 11.8001 1.62573 11.6804 1.80715C11.4353 2.17864 11.0808 2.67974 10.6436 3.1961C9.98837 3.97 9.09324 4.84423 8.05782 5.31566L8.59824 8.54798ZM12.0685 1.18127C12.0686 1.1812 12.0686 1.18113 12.0687 1.18106L11.6327 0.936406C11.9417 1.10979 12.0317 1.16038 12.0579 1.17519C12.0663 1.17997 12.0681 1.18102 12.0685 1.18127ZM13.7387 11.167C13.7387 11.167 13.7388 11.1671 13.7388 11.1671L13.4055 11.5395C13.6527 11.2634 13.7166 11.1919 13.7331 11.1733C13.7372 11.1687 13.7383 11.1673 13.7387 11.167Z" fill="black"/>
<path fill-rule="evenodd" clip-rule="evenodd" d="M4.6301 9.07065C4.90247 9.02511 5.16017 9.20899 5.20571 9.48135L6.03023 14.4129L7.41723 14.181L7.41739 14.181C7.33776 14.0236 7.22666 13.8451 7.1001 13.6417C6.7032 13.0041 6.15415 12.122 5.94622 10.8784C5.90068 10.606 6.08456 10.3483 6.35692 10.3028L6.85008 10.2203L6.76763 9.72715L6.27447 9.8096C6.00211 9.85514 5.7444 9.67126 5.69887 9.3989C5.65333 9.12654 5.83721 8.86883 6.10957 8.82329L6.60272 8.74084C6.86431 8.69711 7.13255 8.75908 7.34845 8.91312C7.56434 9.06716 7.7102 9.30066 7.75394 9.56225L7.83639 10.0554C7.88012 10.317 7.81815 10.5852 7.66411 10.8011C7.51446 11.0109 7.28983 11.1545 7.03731 11.2026C7.23614 11.9546 7.55867 12.473 7.87294 12.9781C8.02577 13.2237 8.17664 13.4662 8.31039 13.7309L8.31086 13.7319C8.38121 13.8718 8.4177 14.0264 8.41738 14.183C8.41707 14.3397 8.37995 14.494 8.30903 14.6337C8.2381 14.7734 8.13536 14.8945 8.00907 14.9871C7.88283 15.0798 7.73659 15.1415 7.58213 15.1673C7.58208 15.1673 7.58203 15.1673 7.58197 15.1673L5.94856 15.4404C5.75237 15.4732 5.55118 15.4268 5.38926 15.3112C5.22734 15.1957 5.11795 15.0206 5.08515 14.8244L4.2194 9.64626C4.17386 9.37389 4.35774 9.11619 4.6301 9.07065Z" fill="black"/>
</g>
<defs>
<clipPath id="clip0_5482_67894">
<rect width="16" height="16" fill="white"/>
</clipPath>
</defs>
</svg>
