<svg viewBox="0 0 19 19" fill="none" xmlns="http://www.w3.org/2000/svg">
  <path d="M19 17.1364L14.0483 12.2241C14.9796 10.9535 15.5302 9.39075 15.5302 7.70292C15.5302 3.45562 12.0469 0 7.76471 0C3.48335 0 0 3.45562 0 7.70292C0 11.951 3.48335 15.4058 7.76471 15.4058C9.38788 15.4058 10.8953 14.9095 12.1434 14.0616L17.1215 19L19 17.1364ZM2.27754 7.70292C2.27754 4.70092 4.73943 2.25863 7.76551 2.25863C10.7916 2.25863 13.2535 4.70092 13.2535 7.70292C13.2535 10.7049 10.7916 13.1472 7.76551 13.1472C4.73863 13.1472 2.27754 10.7049 2.27754 7.70292Z" fill="black"/>
</svg>
