<svg viewBox="0 0 25 22" fill="none" xmlns="http://www.w3.org/2000/svg">
  <path d="M7.86475 21.1438C17.2964 21.1438 22.4565 13.3279 22.4565 6.55202C22.4565 6.33229 22.4517 6.10768 22.4419 5.88796C23.4457 5.16202 24.312 4.26284 25 3.23268C24.0651 3.64862 23.0725 3.92027 22.0562 4.03835C23.1263 3.39686 23.9276 2.38911 24.3115 1.20192C23.3047 1.79858 22.2037 2.21947 21.0557 2.44655C20.2821 1.62462 19.2594 1.08041 18.1455 0.898049C17.0316 0.715689 15.8887 0.90534 14.8935 1.43768C13.8982 1.97002 13.106 2.8154 12.6394 3.84311C12.1728 4.87083 12.0577 6.02364 12.312 7.12331C10.2734 7.02101 8.2791 6.49144 6.45831 5.56893C4.63753 4.64643 3.03093 3.35158 1.74268 1.76833C1.08792 2.89721 0.887559 4.23304 1.18232 5.50434C1.47709 6.77564 2.24486 7.887 3.32959 8.61257C2.51524 8.58671 1.71872 8.36746 1.00586 7.97292V8.03639C1.00513 9.22107 1.41469 10.3694 2.16491 11.2863C2.91513 12.2032 3.95971 12.8319 5.12109 13.0657C4.36672 13.2721 3.57498 13.3022 2.80713 13.1536C3.13485 14.1724 3.77247 15.0635 4.63101 15.7025C5.48955 16.3415 6.52617 16.6965 7.59619 16.718C5.77961 18.145 3.5356 18.919 1.22559 18.9153C0.815924 18.9147 0.406666 18.8896 0 18.8401C2.34673 20.3457 5.07659 21.1453 7.86475 21.1438Z" fill="black"/>
</svg>
