<svg viewBox="0 0 25 18" fill="none" xmlns="http://www.w3.org/2000/svg">
  <path d="M24.751 3.9873C24.751 3.9873 24.5068 2.26367 23.7549 1.50684C22.8027 0.510742 21.7383 0.505859 21.25 0.447265C17.7539 0.193359 12.5049 0.193359 12.5049 0.193359H12.4951C12.4951 0.193359 7.24609 0.193359 3.75 0.447265C3.26172 0.505859 2.19727 0.510742 1.24512 1.50684C0.493164 2.26367 0.253906 3.9873 0.253906 3.9873C0.253906 3.9873 0 6.01367 0 8.03516V9.92969C0 11.9512 0.249023 13.9775 0.249023 13.9775C0.249023 13.9775 0.493164 15.7012 1.24023 16.458C2.19238 17.4541 3.44238 17.4199 3.99902 17.5273C6.00098 17.7178 12.5 17.7764 12.5 17.7764C12.5 17.7764 17.7539 17.7666 21.25 17.5176C21.7383 17.459 22.8027 17.4541 23.7549 16.458C24.5068 15.7012 24.751 13.9775 24.751 13.9775C24.751 13.9775 25 11.9561 25 9.92969V8.03516C25 6.01367 24.751 3.9873 24.751 3.9873ZM9.91699 12.2295V5.20312L16.6699 8.72851L9.91699 12.2295Z" fill="black"/>
</svg>
